<svg width="28" height="30" viewBox="0 0 28 30" fill="none" xmlns="http://www.w3.org/2000/svg">
<path fill-rule="evenodd" clip-rule="evenodd" d="M5.98692 3.51291C4.98545 4.2135 4.07986 5.04183 3.29373 5.97429C6.50624 5.67589 10.5876 6.16313 15.3261 8.53354C20.3861 11.0647 24.4607 11.1503 27.2964 10.6031C27.039 9.82364 26.7151 9.07455 26.3314 8.36244C23.0853 8.70498 18.9238 8.25158 14.0739 5.82552C10.9942 4.2849 8.27944 3.65027 5.98692 3.51291ZM24.4352 5.66211C21.8717 2.79655 18.1464 0.993164 14 0.993164C12.7823 0.993164 11.6009 1.14872 10.4746 1.44102C12 1.85745 13.6205 2.46668 15.3261 3.31989C18.8769 5.09615 21.9425 5.66807 24.4352 5.66211ZM27.9026 13.3389C24.4768 14.0157 19.7462 13.8767 14.0739 11.0392C8.77098 8.3864 4.55031 8.4198 1.70373 9.0527C1.5568 9.08534 1.41333 9.11966 1.27332 9.15537C0.900635 9.9663 0.603144 10.819 0.389692 11.7046C0.617671 11.6436 0.853252 11.5857 1.09631 11.5316C4.5497 10.7639 9.42905 10.7972 15.3261 13.7472C20.6291 16.3999 24.8497 16.3665 27.6963 15.7336C27.7938 15.712 27.89 15.6896 27.9845 15.6665C27.9948 15.4457 28 15.2234 28 15C28 14.438 27.967 13.8837 27.9026 13.3389ZM27.5274 18.6224C24.1348 19.2158 19.5419 18.9881 14.0739 16.2528C8.77098 13.6 4.55031 13.6334 1.70373 14.2663C1.07188 14.4068 0.503468 14.5779 0.002051 14.7585C0.000683901 14.8388 0 14.9193 0 15C0 22.7358 6.26801 29.0069 14 29.0069C20.48 29.0069 25.9317 24.6024 27.5274 18.6224Z" fill="black"/>

	<style>
    @media (prefers-color-scheme:dark){:root{filter:invert(100%)}}
  </style>
</svg>

