<svg width="512" height="512" viewBox="0 0 512 512" fill="none" xmlns="http://www.w3.org/2000/svg">
<path fill-rule="evenodd" clip-rule="evenodd" d="M127.791 72.2063C111.767 83.4159 97.2778 96.6692 84.6996 111.588C136.1 106.814 201.402 114.61 277.217 152.536C358.177 193.035 423.371 194.405 468.742 185.649C464.625 173.178 459.441 161.193 453.303 149.799C401.365 155.28 334.781 148.025 257.183 109.208C207.907 84.5583 164.471 74.4042 127.791 72.2063ZM422.963 106.594C381.947 60.7446 322.342 31.8904 256 31.8904C236.517 31.8904 217.614 34.3793 199.593 39.0561C224 45.719 249.928 55.4667 277.217 69.1181C334.03 97.5382 383.08 106.689 422.963 106.594ZM478.442 229.422C423.629 240.251 347.938 238.027 257.183 192.626C172.336 150.182 104.805 150.717 59.2597 160.843C56.9088 161.365 54.6133 161.914 52.3732 162.486C46.4102 175.461 41.6503 189.104 38.2351 203.273C41.8827 202.298 45.652 201.371 49.541 200.506C104.795 188.221 182.865 188.755 277.217 235.955C362.065 278.399 429.595 277.864 475.141 267.738C476.702 267.392 478.239 267.033 479.751 266.663C479.917 263.13 480 259.575 480 256C480 247.008 479.471 238.139 478.442 229.422ZM472.438 313.958C418.157 323.453 344.67 319.809 257.183 276.045C172.336 233.6 104.805 234.135 59.2597 244.261C49.15 246.508 40.0555 249.246 32.0328 252.135C32.0109 253.421 32 254.709 32 256C32 379.773 132.288 480.11 256 480.11C359.679 480.11 446.907 409.638 472.438 313.958Z" fill="url(#paint0_linear_1_7)"/>
<defs>
<linearGradient id="paint0_linear_1_7" x1="256" y1="31.8904" x2="256" y2="480.11" gradientUnits="userSpaceOnUse">
<stop stop-color="#ACE5B4"/>
<stop offset="1" stop-color="#79E3F6"/>
</linearGradient>
</defs>
</svg>
